<?xml version="1.0" encoding="UTF-8"?>
<svg id="Calque_1" data-name="Calque 1" xmlns="http://www.w3.org/2000/svg" xmlns:xlink="http://www.w3.org/1999/xlink" viewBox="0 0 73.9366 29.8025">
  <a xlink:href="58.5419607843137">
    <path id="fullLogo" d="M19.7249,10.9089h-.1484v-1.4842h-2.7087v9.7958h2.8757v-4.4527c0-1.6882,.9091-2.7086,2.3191-2.7086h1.1317v-2.7087h-.9462c-1.3172,0-2.1892,.8349-2.5231,1.5585Z" style="fill: #d54122;"/>
  </a>
  <path id="fullLogo-2" data-name="fullLogo" d="M31.1233,10.5377h-.1484c-.3341-.5195-1.2245-1.3543-2.7645-1.3543-2.6345,0-4.4527,2.115-4.4527,5.1949s1.8367,5.0835,4.5269,5.0835c1.6142,0,2.4304-.9091,2.7088-1.3543h.1484v1.1132h2.8572V9.4246h-2.8757v1.1131Zm-2.1893,6.3267c-1.3543,0-2.2635-1.0204-2.2635-2.5418,0-1.5028,.9091-2.5418,2.2449-2.5418,1.3173,0,2.2635,.9833,2.2635,2.5418,0,1.4471-.872,2.5418-2.2449,2.5418Z" style="fill: #d54122;"/>
  <a xlink:href="58.5419607843137">
    <polygon id="fullLogo-3" data-name="fullLogo" points="40.0477 15.8068 39.8992 15.8068 37.8585 9.4247 34.8715 9.4247 38.3408 19.2205 41.6618 19.2205 45.1126 9.4247 42.0885 9.4247 40.0477 15.8068" style="fill: #d54122;"/>
  </a>
  <a xlink:href="58.5419607843137">
    <rect id="fullLogo-4" data-name="fullLogo" x="46.1425" y="9.4247" width="2.8756" height="9.7958" style="fill: #d54122;"/>
  </a>
  <a xlink:href="58.5419607843137">
    <path id="fullLogo-5" data-name="fullLogo" d="M54.6673,6.184h-2.7272v2.3873c0,.5195-.2783,.872-.7978,.872h-.9276v2.2263h1.577v4.1558c0,2.1521,1.2801,3.3951,3.4137,3.3951h1.985v-2.3748h-1.2615c-.8534,0-1.2616-.4453-1.2616-1.1688v-4.0074h2.5602v-2.2448h-2.5602v-3.2408Z" style="fill: #d54122;"/>
  </a>
  <a xlink:href="58.5419607843137">
    <rect id="fullLogo-6" data-name="fullLogo" x="58.3301" y="9.4247" width="2.8756" height="9.7958" style="fill: #d54122;"/>
  </a>
  <a xlink:href="58.5419607843137">
    <path id="fullLogo-7" data-name="fullLogo" d="M67.9905,9.3505c-1.3173,0-2.1892,.8349-2.5233,1.5585h-.1484v-1.4842h-2.7087v9.7958h2.8756v-4.4527c0-1.6882,.9091-2.7086,2.3191-2.7086h1.1317v-2.7087h-.9461Z" style="fill: #d54122;"/>
  </a>
  <g id="logoMark">
    <a xlink:href="58.5419607843137">
      <path id="logoMark__PathItem_" data-name="logoMark &amp;lt;PathItem&amp;gt;" d="M10.3568,22.1711c-1.3908,0-2.4058-1.0714-2.4058-2.5751h-2.9509c0,2.9321,2.1615,5.2064,5.338,5.2064,3.2141,0,5.3568-2.2743,5.3568-5.2064h-2.9509c0,1.5037-1.015,2.5751-2.3871,2.5751Z" style="fill: #d54122;"/>
    </a>
    <path id="logoMark__CompoundPathItem_" data-name="logoMark &amp;lt;CompoundPathItem&amp;gt;" d="M12.9715,9.7864c-.7529-.3853-1.6351-.6028-2.6147-.6028-3.214,0-5.3568,2.2743-5.3568,5.2064s2.1615,5.2064,5.338,5.2064c3.1953,0,5.3568-2.2742,5.3568-5.2064,0-.0228-.0029-.0446-.0031-.0673h.0031v-4.8804h-2.7233v.3442Zm-2.6335,7.1786c-1.3721,0-2.3871-1.0526-2.3871-2.575,0-1.5037,1.015-2.5751,2.3871-2.5751,1.3909,0,2.4058,1.0714,2.4058,2.5751s-1.015,2.575-2.4058,2.575Z" style="fill: #d54122;"/>
  </g>
  <a xlink:href="58.5419607843137">
    <path id="fullLogo-8" data-name="fullLogo" d="M47.5803,5c-.8315,0-1.5056,.674-1.5056,1.5055s.6741,1.5055,1.5056,1.5055,1.5055-.674,1.5055-1.5055-.674-1.5055-1.5055-1.5055Z" style="fill: #d54122;"/>
  </a>
  <a xlink:href="58.5419607843137">
    <path id="fullLogo-9" data-name="fullLogo" d="M59.7679,5c-.8315,0-1.5056,.674-1.5056,1.5055s.6741,1.5055,1.5056,1.5055,1.5055-.674,1.5055-1.5055-.674-1.5055-1.5055-1.5055Z" style="fill: #d54122;"/>
  </a>
</svg>